<?xml version="1.0" encoding="utf-8"?>
<!-- Generator: Adobe Illustrator 28.0.0, SVG Export Plug-In . SVG Version: 6.00 Build 0)  -->
<svg version="1.1" id="Layer_1" xmlns="http://www.w3.org/2000/svg" xmlns:xlink="http://www.w3.org/1999/xlink" x="0px" y="0px"
	 viewBox="0 0 100 100" style="enable-background:new 0 0 100 100;" xml:space="preserve">
<path d="M12.4,6.8l22.9,0.7V1.2c1.2,0.3,2.3,0.6,3.4,1c0.2,0.1,0.4,0.5,0.5,0.8c0.4,1.8,0.8,3.7,1.1,5.6c0.1,0.4,0.2,0.8,0.1,1.2
	c-0.3,1.8,1,3,2.8,2.6c0.8-0.2,1.6-0.4,2,0.7c0.1,0.2,0.4,0.3,0.7,0.3c0.9,0.1,1.9,0.3,2.9,0.3c0.8,0,1.1,0.4,1.5,1
	c0.2,0.3,0.7,0.7,1,0.7c1.1,0,2.1,0.1,3-0.9c0.5-0.5,1.7-1.4,2.8-0.6c0.2,0.1,0.5,0,0.8,0c0.8,0.2,1.7,0.4,2.5,0.6
	c0.6,0.2,1.2,0.4,1.8,0.6c0.4,0.1,0.8,0.3,1.4,0.5l-1.4,1c0.7,0.1,1.1,0.3,1.5,0.2c0.9-0.1,1.3,0.3,1.3,1.2c0,1.2,1,2.1,2.2,2.1
	c0-0.2,0-0.4,0-0.5c-0.3-0.9,0.1-1.4,0.9-1.6c1-0.2,1.6,0.1,1.9,1c0.3,1.2,1.4,1.4,2.3,1.6c0.6,0.1,0.9,0.4,1.3,0.9
	c0.5,0.6,1.4,1.1,2.2,1.3c1.7,0.5,2.9-0.5,4.1-1.4c0.6-0.4,1.2-0.8,1.8-1.1c1.1-0.6,2-0.2,2.1,1.1c0.1,0.9,0.6,0.8,1.3,0.8
	c2.1-0.1,4.2-0.2,6.2-0.1c0.5,0,1.1,0.5,1.6,0.9c0.6,0.5,1.1,0.7,1.9,0.4c0.8-0.3,1.7-0.2,2.6-0.2c-2.4,2.7-5.5,3.6-8.5,4.6
	c-3.5,1.2-6.3,3.4-8.7,6.1c-2.3,2.4-4.6,4.8-7,7.1c-1.1,1.1-2.6,1.9-3.8,2.9c-1.3,1.1-2.3,2.4-2.1,4.4c0.2,2.2,0,4.4,0,6.5
	c0,0.9-0.4,1.2-1.2,1.6c-1.7,0.8-3.7,1.5-4.3,3.7c-0.1,0.4-0.5,0.6-0.7,1c-0.3,0.7-0.5,1.4-0.6,2.1c0,0.2,0.4,0.7,0.6,0.7
	c1.7-0.2,1.5,1.5,2.1,2.2c0.2,0.2-0.5,1.2-0.8,1.9c-0.1,0.2-0.4,0.5-0.4,0.7c0.1,1.4-0.9,2-1.7,2.8c-8.7,8.3-17.3,16.6-26,25
	C33.6,96.8,33,97,32.1,97c-4.5-0.1-8.9-0.2-13.4-0.3c-0.3,0-0.6,0-1-0.1c0-0.5,0-0.9,0-1.3c0.3-9,0.6-17.9,0.9-26.9
	c0.1-1.9-0.4-2.5-2.1-3.3c-0.5-0.2-0.8-0.7-1.1-1.2c-0.2-0.3-0.2-0.6-0.4-0.9c-0.9-1.7-0.9-1.8,0.8-2.7c1.3-0.7,1.9-1.9,2-3.3
	c0.1-1.9,0.1-3.8,0-5.7c0-0.4-0.1-0.9-0.3-1.3c-1.9-2.6-1.9-5.5-1.5-8.4c0-0.3,0-0.6,0-0.9c-0.2-2.6-0.4-5.2-0.4-7.8
	c0-2.5-0.5-4.9-1.4-7.3c-0.8-2.2-1.6-4.4-1.2-6.8c0.1-1-0.2-2-0.1-3c0.1-1.1,0.4-2.1,0.6-3.1c0.1-0.5,0-0.9-0.1-1.4
	c-0.3-1.2-0.6-2.4-1-3.5C12.3,7.4,12.4,7.2,12.4,6.8L12.4,6.8z M36,97.2c1.7,0,3.4-0.1,5.2,0c1.1,0.1,1.8-0.3,2.6-1
	c6-5.8,12-11.6,18-17.3c0.3-0.2,0.5-0.5,0.8-0.9c-1.1-0.4-1.2-1.2-0.9-2.1c0.2-0.6,0.3-1.2,0.3-1.7c0-0.6-0.1-1.3-0.2-2.2
	c-8.9,8.5-17.4,16.7-25.9,24.9L36,97.2L36,97.2z M51.1,97.2c0.3,0,0.6-0.1,0.7-0.3c4.2-4,8.5-8.1,12.7-12.1c1.1-1,2-2.2,3.2-3.5
	c-0.4-0.3-1-0.8-1.6-1.1c-0.8-0.3-1.8-0.5-2.9-0.7C57.3,85.1,51.1,91,44.7,97.2C47.1,97.2,49.1,97.2,51.1,97.2L51.1,97.2z
	 M59.1,97.2c0.3,0,0.6-0.2,0.8-0.4c3.9-4,7.7-8.1,11.5-12.1c0.2-0.2,0.3-0.7,0.2-0.9c-0.5-1.1-2.4-1.4-3.3-0.6
	C63.7,87.5,59,92,54.4,96.4c-0.2,0.2-0.4,0.4-0.8,0.8C55.6,97.2,57.3,97.2,59.1,97.2z M61.5,97.1c2.9,0.3,5.3-0.5,7.2-2.5
	c2.1-2.1,4.2-4.3,6.3-6.5l-2.8-2.2L61.5,97.1z M77.8,89.6c-0.9-1-1.2-1-2.1,0c-2.2,2.3-4.4,4.5-6.6,6.8c-0.2,0.2-0.4,0.5-0.7,0.9
	c1.4,0,2.5,0,3.7,0c0.3,0,0.6-0.1,0.8-0.3c1.9-2.1,3.8-4.2,5.7-6.4C78.3,90.2,78.1,89.9,77.8,89.6L77.8,89.6z M80,97.1
	c-0.1-1.8-0.2-3.4-0.3-5.2L75,97.1H80z"/>
</svg>
