<?xml version="1.0" encoding="UTF-8"?>
<svg id="a" data-name="Layer 4" xmlns="http://www.w3.org/2000/svg" width="180" height="200" viewBox="0 0 180 200">
  <path id="b" data-name="state" d="M6.053,16.051c15.129,.466,30.075,.927,45.225,1.394V5c2.418,.668,4.596,1.198,6.711,1.916,.431,.146,.778,.965,.9,1.531,.783,3.655,1.503,7.323,2.218,10.992,.154,.789,.394,1.631,.263,2.392-.597,3.486,1.968,5.98,5.445,5.206,1.535-.342,3.078-.792,3.856,1.301,.122,.327,.871,.533,1.355,.592,1.877,.23,3.773,.576,5.646,.498,1.66-.069,2.248,.787,2.968,1.986,.384,.639,1.354,1.303,2.058,1.302,2.119-.004,4.16,.263,6.012-1.842,.924-1.05,3.271-2.748,5.566-1.192,.348,.236,1.032-.092,1.52,.018,1.678,.38,3.35,.797,5,1.281,1.197,.351,2.356,.83,3.532,1.251,.765,.273,1.53,.544,2.704,.962l-2.688,2.01c1.325,.208,2.174,.516,2.983,.432,1.843-.191,2.527,.524,2.574,2.353,.06,2.32,2.011,4.144,4.312,4.129,0-.337,.085-.703-.014-1.009-.565-1.753,.184-2.702,1.846-3.098,2.073-.494,3.253,.136,3.768,1.959,.655,2.319,2.68,2.753,4.604,3.177,1.139,.251,1.739,.71,2.503,1.694,.978,1.261,2.734,2.143,4.327,2.659,3.313,1.074,5.733-1.015,8.184-2.819,1.13-.832,2.315-1.622,3.564-2.255,2.192-1.109,3.888-.342,4.192,2.1,.232,1.862,1.223,1.596,2.477,1.543,4.114-.174,8.236-.389,12.347-.287,1.088,.027,2.256,1.005,3.196,1.779,1.186,.975,2.163,1.389,3.795,.793,1.498-.547,3.268-.348,5.071-.489-4.656,5.332-10.821,7.139-16.836,9.126-6.996,2.311-12.359,6.798-17.299,12.033-4.525,4.796-9.131,9.525-13.894,14.084-2.267,2.17-5.094,3.746-7.462,5.825-2.567,2.254-4.554,4.766-4.213,8.695,.371,4.271,.067,8.6,.093,12.903,.011,1.754-.727,2.391-2.428,3.25-3.315,1.673-7.342,2.886-8.583,7.222-.207,.724-1.017,1.259-1.311,1.979-.534,1.311-.999,2.675-1.249,4.061-.069,.379,.788,1.356,1.12,1.311,3.321-.442,2.903,2.868,4.176,4.352,.399,.465-.976,2.47-1.571,3.756-.214,.463-.778,.907-.741,1.319,.247,2.745-1.806,4.024-3.421,5.576-17.121,16.457-34.26,32.895-51.349,49.386-1.226,1.183-2.44,1.635-4.122,1.588-8.829-.248-17.661-.387-26.491-.569-.576-.012-1.152-.063-1.932-.108,0-.924-.022-1.718,.003-2.511,.568-17.722,1.14-35.444,1.714-53.166,.124-3.833-.706-4.987-4.225-6.618-.905-.419-1.573-1.451-2.211-2.306-.382-.512-.433-1.257-.738-1.842-1.761-3.369-1.83-3.465,1.518-5.35,2.624-1.477,3.813-3.666,3.894-6.525,.106-3.756,.133-7.515,.098-11.272-.008-.851-.19-1.859-.67-2.521-3.706-5.111-3.761-10.813-2.917-16.696,.083-.581,.076-1.182,.042-1.77-.297-5.158-.811-10.313-.859-15.472-.047-5.038-.949-9.755-2.676-14.523-1.548-4.273-3.104-8.721-2.432-13.536,.272-1.949-.321-4.006-.167-5.987,.162-2.085,.819-4.126,1.115-6.207,.128-.897,.014-1.876-.202-2.766-.571-2.348-1.272-4.664-1.883-7.002-.088-.338,.036-.73,.093-1.533ZM52.579,194.641c3.397,0,6.801-.123,10.19,.045,2.12,.105,3.584-.511,5.146-2.031,11.802-11.482,23.729-22.835,35.613-34.233,.504-.483,.964-1.011,1.649-1.734-2.202-.878-2.384-2.319-1.835-4.099,.343-1.114,.636-2.286,.675-3.441,.042-1.251-.238-2.512-.443-4.355-17.503,16.821-34.384,33.046-51.266,49.27l.271,.578Zm29.958,0c.496-.006,1.097-.293,1.464-.643,8.37-7.98,16.739-15.962,25.045-24.008,2.122-2.055,4.029-4.332,6.377-6.878-.86-.606-1.885-1.637-3.124-2.127-1.672-.662-3.509-.909-5.784-1.457-11.714,11.229-23.949,22.957-36.662,35.142,4.689,0,8.687,.023,12.683-.029Zm15.762,.015c.506-.01,1.114-.388,1.486-.777,7.635-7.967,15.254-15.949,22.824-23.978,.38-.403,.593-1.391,.37-1.863-1.055-2.235-4.754-2.853-6.497-1.187-9.153,8.753-18.304,17.508-27.453,26.265-.407,.389-.78,.814-1.503,1.575,3.883,0,7.329,.032,10.773-.035Zm4.856-.136q8.654,.967,14.286-4.848c4.108-4.246,8.209-8.498,12.488-12.929l-5.625-4.416-21.149,22.193Zm32.239-14.854c-1.697-1.924-2.413-1.932-4.231-.057-4.333,4.47-8.664,8.943-12.985,13.424-.426,.442-.786,.948-1.452,1.759,2.734,0,5.02,.039,7.302-.029,.534-.016,1.218-.25,1.562-.629,3.776-4.156,7.499-8.36,11.282-12.602-.564-.716-.993-1.316-1.478-1.866Zm4.227,14.912c-.183-3.483-.349-6.642-.545-10.375-3.282,3.687-6.146,6.905-9.235,10.375h9.779Z"/>
</svg>