<svg height="400" viewBox="0 0 500 400" width="500" xmlns="http://www.w3.org/2000/svg"><path d="m487.517 82.411h-285.347c17.317-7.966 12.66-28.602-8.022-31.285 0 0-89.197-16.377-103.336-21.845 2.109-21.912-33.717-35.997-39.532-11.517.002 0-48.14-6.012-48.792 12.897-.325 23.184 16.559 99.614 4.69 113.279-1.634 8.862 5.575 18.66 5.575 18.66v152.53c0 5.523 4.477 10 10 10h464.764c5.523 0 10-4.477 10-10v-222.719c0-5.523-4.477-10-10-10z" fill="#fff"/><path d="m17.452 31.728c16.288.502 32.378.998 48.688 1.501v-13.398c2.603.72 4.948 1.29 7.225 2.062.464.158.838 1.039.969 1.648.843 3.934 1.618 7.884 2.387 11.833.165.849.424 1.756.283 2.575-.643 3.753 2.118 6.438 5.861 5.604 1.652-.368 3.314-.852 4.152 1.401.131.352.938.574 1.459.638 2.021.248 4.062.62 6.079.536 1.787-.075 2.421.847 3.195 2.138.413.688 1.458 1.403 2.216 1.401 2.281-.004 4.478.283 6.472-1.983.995-1.13 3.522-2.958 5.992-1.283.375.254 1.111-.099 1.636.02 1.806.409 3.606.858 5.383 1.379 1.288.378 2.536.894 3.803 1.347.823.294 1.647.586 2.911 1.035l-2.894 2.164c1.427.224 2.341.555 3.211.465 1.984-.205 2.72.564 2.771 2.533.065 2.498 2.165 4.461 4.642 4.445 0-.363.091-.757-.015-1.087-.609-1.887.198-2.909 1.987-3.335 2.232-.532 3.502.146 4.056 2.109.705 2.497 2.885 2.964 4.956 3.42 1.226.27 1.873.764 2.694 1.823 1.053 1.358 2.944 2.307 4.658 2.863 3.567 1.156 6.172-1.093 8.811-3.035 1.217-.896 2.492-1.747 3.837-2.427 2.36-1.194 4.186-.368 4.513 2.261.25 2.004 1.317 1.718 2.666 1.661 4.429-.188 8.866-.419 13.292-.309 1.171.029 2.429 1.082 3.441 1.915 1.276 1.05 2.329 1.495 4.085.854 1.612-.589 3.518-.374 5.459-.526-5.012 5.74-11.65 7.685-18.125 9.824-7.531 2.488-13.306 7.318-18.624 12.955-4.872 5.163-9.831 10.255-14.958 15.162-2.441 2.336-5.484 4.033-8.033 6.271-2.763 2.426-4.903 5.131-4.536 9.361.399 4.598.072 9.258.1 13.891.011 1.888-.783 2.574-2.614 3.499-3.569 1.802-7.904 3.107-9.24 7.775-.223.78-1.095 1.356-1.411 2.131-.575 1.412-1.076 2.88-1.345 4.372-.074.409.848 1.459 1.206 1.412 3.576-.476 3.125 3.088 4.496 4.685.429.5-1.051 2.66-1.691 4.044-.23.498-.838.976-.798 1.42.266 2.956-1.945 4.332-3.683 6.003-18.432 17.717-36.884 35.414-55.281 53.167-1.32 1.274-2.627 1.76-4.437 1.71-9.505-.267-19.013-.417-28.52-.613-.62-.013-1.24-.068-2.08-.116 0-.995-.024-1.85.004-2.703.611-19.079 1.228-38.158 1.846-57.237.134-4.127-.76-5.369-4.549-7.124-.974-.451-1.694-1.562-2.38-2.482-.411-.551-.466-1.353-.795-1.983-1.896-3.627-1.97-3.731 1.635-5.759 2.825-1.59 4.105-3.947 4.192-7.025.114-4.043.143-8.09.105-12.135-.009-.916-.204-2.001-.721-2.714-3.99-5.502-4.049-11.641-3.14-17.975.09-.625.081-1.273.045-1.906-.319-5.553-.873-11.102-.925-16.657-.051-5.424-1.022-10.502-2.881-15.635-1.666-4.6-3.341-9.389-2.619-14.573.293-2.098-.346-4.313-.18-6.445.175-2.244.882-4.442 1.2-6.682.137-.966.015-2.019-.218-2.977-.615-2.528-1.37-5.021-2.027-7.538-.095-.363.039-.786.1-1.651zm50.088 192.266c3.657 0 7.322-.132 10.97.048 2.282.113 3.858-.55 5.54-2.186 12.706-12.361 25.547-24.584 38.34-36.854.542-.52 1.038-1.089 1.776-1.867-2.37-.945-2.566-2.497-1.975-4.413.37-1.2.685-2.461.726-3.705.045-1.347-.257-2.705-.477-4.688-18.843 18.109-37.017 35.576-55.191 53.043zm32.252 0c.534-.007 1.181-.315 1.577-.692 9.011-8.591 18.021-17.184 26.963-25.846 2.284-2.213 4.337-4.664 6.866-7.405-.926-.653-2.03-1.762-3.364-2.29-1.8-.713-3.777-.979-6.226-1.569-12.611 12.088-25.783 24.715-39.469 37.833 5.048 0 9.352.024 13.654-.031zm16.969.017c.544-.011 1.199-.418 1.6-.836 8.22-8.577 16.422-17.171 24.572-25.814.409-.434.639-1.497.398-2.006-1.136-2.406-5.118-3.072-6.994-1.278-9.854 9.424-19.706 18.848-29.555 28.277-.438.419-.839.877-1.618 1.695 4.181 0 7.89.035 11.597-.038zm5.228-.147q9.317 1.041 15.379-5.219c4.423-4.571 8.838-9.149 13.444-13.919l-6.056-4.754-22.768 23.892zm34.708-15.992c-1.827-2.072-2.598-2.08-4.556-.061-4.665 4.812-9.327 9.628-13.98 14.452-.459.476-.846 1.02-1.563 1.894 2.943 0 5.404.042 7.862-.031.575-.017 1.311-.269 1.682-.677 4.066-4.474 8.074-9.001 12.146-13.568-.607-.771-1.069-1.417-1.591-2.009zm4.551 16.054c-.197-3.75-.375-7.151-.586-11.17-3.533 3.97-6.617 7.434-9.942 11.17z"/><path d="m171.774 141.413c2.102 1.266 5.768 2.247 8.742 2.247 5.5 0 8.504-3.22 8.504-7.831 0-4.559-2.775-7.121-7.386-10.301-6.234-3.996-10.623-9.609-10.623-15.702 0-8.816 5.986-15.765 16.513-15.765 3.631 0 6.916 1.076 8.42 2.043l-1.66 7.665c-1.529-1.004-3.918-1.924-6.965-1.924-5.07 0-7.486 3.448-7.486 6.834 0 4.372 2.252 6.358 7.997 10.063 7.167 4.638 10.012 10.108 10.012 16.168 0 10.083-7.262 16.533-17.337 16.533-4.239 0-8.468-1.196-10.223-2.355l1.493-7.677zm64.597-19.374c0 21.187-7.408 29.573-17.378 29.573-11.229 0-16.827-11.92-16.827-28.954 0-16.889 6.396-28.764 17.688-28.764 11.812 0 16.517 12.932 16.517 28.145zm-24.918.714c0 12.255 2.317 21.074 7.995 21.074 5.82 0 7.637-10.152 7.637-21.408 0-10.208-1.699-20.741-7.721-20.741-5.594 0-7.911 9.271-7.911 21.074zm40.905-28.19v37.146c0 9.139 2.873 12.071 6.404 12.071 3.867 0 6.513-2.898 6.513-12.071v-37.146h8.929v35.632c0 14.58-5.739 21.416-15.466 21.416-10.297 0-15.309-6.978-15.309-21.006v-36.042zm37.833 8.189h-10.111v-8.189h29.198v8.189h-10.158v48.19h-8.929zm34.094-8.189v23.322h13.393v-23.322h8.929v56.379h-8.929v-24.833h-13.393v24.833h-8.929v-56.379zm54.568 30.689h-13.413v17.941h15.208v7.749h-24.137v-56.379h23.144v7.749h-14.215v15.478h13.413v7.463zm17.034 10.996-3.041 14.694h-8.654l12.538-56.379h10.428l11.658 56.379h-8.727l-2.993-14.694zm10.277-6.999-2.359-12.942c-.671-3.683-1.424-8.888-2.034-12.834h-.239c-.621 3.982-1.458 9.354-2.14 12.87l-2.466 12.906zm17.984 12.163c2.102 1.266 5.768 2.247 8.742 2.247 5.5 0 8.504-3.22 8.504-7.831 0-4.559-2.774-7.121-7.386-10.301-6.234-3.996-10.623-9.609-10.623-15.702 0-8.816 5.986-15.765 16.513-15.765 3.632 0 6.915 1.076 8.42 2.043l-1.66 7.665c-1.528-1.004-3.919-1.924-6.965-1.924-5.07 0-7.486 3.448-7.486 6.834 0 4.372 2.253 6.358 7.997 10.063 7.167 4.638 10.012 10.108 10.012 16.168 0 10.083-7.262 16.533-17.337 16.533-4.239 0-8.468-1.196-10.223-2.355l1.492-7.677zm39.282-38.661h-10.111v-8.189h29.198v8.189h-10.158v48.19h-8.929z"/><path d="m205.622 201.266c-.323-6.319-.694-13.996-.538-20.224h-.275c-1.1 6.155-2.606 13.002-3.972 18.378l-5.817 22.949h-6.125l-5.542-22.301c-1.438-5.736-3.004-12.727-3.973-19.026h-.24c-.071 6.372-.453 13.832-.776 20.512l-.992 21.482h-7.786l3.737-56.38h9.514l5.436 22.826c1.71 7.279 3.132 13.191 4.232 19.584h.204c.969-6.334 2.224-12.244 3.851-19.584l5.327-22.826h9.61l3.333 56.38h-8.107l-1.101-21.771zm26.522-34.609v56.38h-8.928v-56.38zm9.977 56.38v-56.38h8.262l9.424 24.064c1.999 5.11 4.82 12.437 6.566 17.868h.167c-.442-7.232-.966-15.919-.966-26.002v-15.931h7.904v56.38h-8.262l-9.522-23.999c-2.081-5.179-4.566-11.975-6.183-17.923h-.167c.395 6.51.681 14.509.681 26.163v15.759h-7.904zm41.24 0v-56.38h8.262l9.425 24.064c1.999 5.11 4.819 12.437 6.566 17.868h.167c-.442-7.232-.967-15.919-.967-26.002v-15.931h7.904v56.38h-8.262l-9.522-23.999c-2.081-5.179-4.565-11.975-6.183-17.923h-.167c.396 6.51.681 14.509.681 26.163v15.759h-7.904zm63.582-25.69h-13.413v17.941h15.208v7.749h-24.137v-56.38h23.144v7.749h-14.215v15.478h13.413zm7.819 16.16c2.102 1.267 5.768 2.247 8.742 2.247 5.5 0 8.504-3.22 8.504-7.83 0-4.559-2.774-7.121-7.386-10.301-6.234-3.996-10.623-9.609-10.623-15.702 0-8.816 5.986-15.765 16.513-15.765 3.632 0 6.915 1.075 8.42 2.043l-1.66 7.665c-1.528-1.004-3.919-1.924-6.965-1.924-5.07 0-7.486 3.448-7.486 6.834 0 4.372 2.253 6.358 7.997 10.063 7.167 4.638 10.013 10.108 10.013 16.168 0 10.083-7.263 16.533-17.338 16.533-4.239 0-8.468-1.196-10.223-2.355l1.492-7.677zm64.597-19.374c0 21.187-7.407 29.573-17.378 29.573-11.229 0-16.827-11.921-16.827-28.954 0-16.889 6.396-28.764 17.688-28.764 11.811 0 16.517 12.933 16.517 28.145zm-24.919.715c0 12.255 2.318 21.074 7.995 21.074 5.82 0 7.638-10.152 7.638-21.408 0-10.207-1.699-20.74-7.722-20.74-5.593 0-7.911 9.271-7.911 21.074zm37.249-20.001h-10.111v-8.189h29.198v8.189h-10.158v48.19h-8.929zm29.826 33.496-3.041 14.694h-8.654l12.538-56.38h10.428l11.658 56.38h-8.727l-2.993-14.694zm10.277-6.998-2.359-12.942c-.671-3.683-1.424-8.888-2.034-12.834h-.239c-.621 3.982-1.458 9.354-2.14 12.87l-2.466 12.906z"/><path d="m27.746 231.511v78.617h457.891v-78.617zm29.813 63.931c2.454 0 4.947-.561 6.516-1.164l1.232 8.815c-1.934.954-5.405 1.64-9.718 1.64-15.078 0-23.684-12.308-23.684-32.717 0-25.426 13.413-34.537 25.167-34.537 4.297 0 7.321.854 8.638 1.681l-1.931 8.858c-1.555-.729-3.18-1.359-6.278-1.359-7.197 0-14.544 6.586-14.544 24.629 0 17.794 6.659 24.154 14.602 24.154zm42.153 8.703-3.508-17.222h-13.137l-3.564 17.222h-10.143l14.695-66.077h12.221l13.664 66.077zm47.183-32.453c-3.892 4.625-10.29 6.812-15.852 6.812-1.066 0-1.978 0-2.931-.084v25.726h-10.409v-65.097c3.373-.785 7.624-1.274 12.313-1.274 6.939 0 12.551 1.275 16.454 4.984 3.582 3.332 5.305 8.469 5.305 14.128 0 6.675-1.86 11.278-4.88 14.806zm23.529 32.453h-10.464v-66.077h10.464zm29.527 0h-10.464v-56.48h-11.851v-9.597h34.221v9.597h-11.906zm41.139 0-3.508-17.222h-13.137l-3.564 17.222h-10.143l14.695-66.077h12.221l13.664 66.077zm46.11 0h-28.119v-66.077h10.464v57.205h17.655zm50.184-56.996h-16.661v19.764h15.609v8.746h-15.609v28.486h-10.464v-66.077h27.125zm45.035 32.681c0 17.087-6.726 25.1-18.126 25.1-12.068 0-17.941-8.179-17.941-24.62v-42.241h10.464v43.535c0 10.711 3.367 14.146 7.507 14.146 4.532 0 7.632-3.396 7.632-14.146v-43.535h10.465v41.762zm48.121 24.315h-9.684l-11.16-28.127c-2.439-6.069-5.352-14.034-7.246-21.006h-.196c.463 7.629.798 17.004.798 30.663v18.47h-9.264v-66.077h9.683l11.046 28.203c2.343 5.989 5.648 14.576 7.695 20.941h.196c-.519-8.476-1.133-18.657-1.133-30.475v-18.67h9.265v66.077zm40.512-6.251c-4.396 4.527-10.839 6.713-19.304 6.713-3.623 0-7.274-.321-9.625-.7v-64.858c3.037-.813 7.232-1.274 11.736-1.274 7.696 0 13.112 1.847 17.072 5.472 5.418 4.8 8.728 13.455 8.728 26.694 0 14.168-3.545 23.069-8.607 27.954zm-329.714-40.185c0 7.592-3.819 12.312-10.701 12.312-1.011 0-1.768-.042-2.525-.183v-23.095c.897-.294 2.187-.49 3.632-.49 7.056 0 9.593 5.231 9.593 11.455zm-48.991 5.844 2.765 15.168h-10.827l2.89-15.126c.799-4.12 1.78-10.417 2.508-15.084h.281c.715 4.625 1.597 10.726 2.383 15.042zm376.484 6.25c0 20.132-6.581 26.168-13.734 26.168-.686 0-1.695 0-2.565-.196v-49.239c.897-.252 1.964-.337 3.002-.337 9.061 0 13.298 8.646 13.298 23.604zm-235.106-6.25 2.765 15.168h-10.827l2.89-15.126c.799-4.12 1.78-10.417 2.508-15.084h.281c.715 4.625 1.597 10.726 2.383 15.042z"/></svg>