<?xml version="1.0" encoding="UTF-8"?>
<svg preserveAspectRatio="xMidYMid meet" data-bbox="0 -0.003 304.67 314.623" viewBox="0 -0.003 304.67 314.623" xmlns="http://www.w3.org/2000/svg" data-type="color" role="presentation" aria-hidden="true"><defs><style>#comp-ldlu23tq svg [data-color="1"] {fill: #FFFFFF;}</style></defs>
    <g>
        <path d="M178.75 99.75c.33.38.63.77.98 1.11 10.3 10.32 20.62 20.62 30.89 30.97.96.97 1.75 1.14 3.04.79 6.65-1.84 12.44-.2 16.87 5.06 4.44 5.26 5.09 11.34 2.11 17.48-3 6.19-8.27 9.16-15.16 9.01-9.87-.21-17.35-10.04-14.9-19.66.54-2.11.2-3.41-1.36-4.95-9.86-9.7-19.62-19.5-29.34-29.34-1.31-1.33-2.16-1.61-3.94-.63-10.35 5.67-20.83 5.66-31.19 0-1.62-.89-2.47-.83-3.76.48a3364.75 3364.75 0 0 1-29.86 29.88c-1.31 1.29-1.53 2.36-1.08 4.11 2.25 8.65-2.96 17.47-11.42 19.61-8.78 2.23-17.48-2.78-19.71-11.57-1.48-5.81-.17-11.12 4.12-15.41 4.34-4.35 9.67-5.76 15.6-4.19 1.71.45 2.68.12 3.85-1.07 10.46-10.51 20.98-20.96 31.55-31.5-7.05-11.82-7.17-23.57-.11-35.42-.39-.46-.79-.97-1.24-1.42-10.12-10.14-20.27-20.26-30.36-30.43-1.03-1.03-1.84-1.45-3.41-1.01-8.97 2.53-17.82-2.64-20.11-11.58-2.23-8.7 3.2-17.49 12.14-19.64 11.25-2.71 21.93 7.73 19.23 19-.59 2.45-.05 3.88 1.66 5.56 9.67 9.53 19.24 19.17 28.81 28.8.64.64 1.09 1.48 1.59 2.17 12.19-7.23 23.91-7.25 35.74-.28.52-.47 1.09-.95 1.61-1.47 9.95-9.96 19.89-19.94 29.87-29.86 1.21-1.2 1.74-2.19 1.24-4.07-2.38-8.79 2.73-17.36 11.5-19.7 8.55-2.28 17.14 2.74 19.57 11.44 3.28 11.74-7.58 22.92-19.35 19.76-2-.54-3.12-.1-4.48 1.28-9.78 9.9-19.63 19.72-29.47 29.55-.59.59-1.31 1.03-1.92 1.5 7.23 12.09 7.22 23.82.21 35.62Z" fill="#404040" data-color="1"></path>
        <path d="M82.63 282.17v-85.84h2.49c12.08 0 24.16-.07 36.23.03 8.38.07 16.52 1.45 24.18 5.13 17.32 8.33 24.21 24.85 22.87 41.61-1.83 22.99-18.6 35.57-37.12 38.12-3.78.52-7.61.87-11.42.91-11.41.12-22.82.04-34.23.04h-3.01Zm19.71-16.46c6.74 0 13.23.04 19.72 0 14.89-.11 24.94-9.32 26.39-24.1 1.45-14.84-7.76-26.85-22.44-28.35-7.66-.78-15.44-.36-23.16-.47-.13 0-.26.16-.5.32v52.61Z" fill="#404040" data-color="1"></path>
        <path d="M212.07 215.05c15.46.69 27.35 5.48 33.91 18.8 9.46 19.23.1 43.81-24.27 48.37-11.85 2.22-22.97.46-32.44-7.26-10.71-8.73-13.96-20.41-11.1-33.64 2.82-13 11.37-20.92 23.93-24.54 3.63-1.05 7.49-1.32 9.96-1.74Zm1.47 52.25c10.19-.05 16.66-7.27 16.61-18.54-.04-10.65-7.01-18.02-16.87-17.87-10.17.15-16.72 7.49-16.66 18.63.06 10.69 6.86 17.84 16.92 17.79Z" fill="#404040" data-color="1"></path>
        <path d="M71.78 282.17c-7.2 0-13.92.04-20.63-.06-.63 0-1.42-.73-1.85-1.33-4.11-5.65-8.15-11.35-12.22-17.03-.38-.53-.8-1.03-1.38-1.77-3.95 5.34-8.05 10.37-11.57 15.78-2.25 3.47-4.76 4.85-8.91 4.5-4.85-.41-9.77-.1-15.22-.1 3.49-4.6 6.68-8.81 9.88-13.01 4.74-6.22 9.43-12.48 14.27-18.61 1.07-1.36.87-2.16-.05-3.39-7.22-9.56-14.38-19.16-21.55-28.76-.44-.58-.84-1.19-1.54-2.21 4.57 0 8.83.46 12.94-.11 6.21-.85 10.21 1.26 13.26 6.71 2.46 4.38 5.86 8.24 9.03 12.59 3.86-5.16 7.77-9.98 11.2-15.13 2.06-3.09 4.28-4.47 8.1-4.17 4.88.39 9.81.1 15.09.1-.54.83-.88 1.44-1.3 1.99-7.23 9.55-14.45 19.12-21.75 28.63-.94 1.22-.98 1.94-.03 3.18 7.73 10.12 15.37 20.3 23.04 30.46.3.4.57.81 1.2 1.71Z" fill="#404040" data-color="1"></path>
        <path d="M254.56 232.41V217.8h9.97v-15.96h18.97v15.8h16.49v14.64h-16.36v26.11c0 7.71 4.8 11.2 12.2 8.85 1.18-.37 2.3-.93 3.77-1.54 1.66 4.31 3.34 8.66 5.07 13.11-4.15 3.14-8.99 3.94-13.86 4.25-5.1.33-10.14-.37-14.81-2.61-7.85-3.77-11.03-10.57-11.3-18.8-.28-8.74-.07-17.5-.07-26.25v-3h-10.06Z" fill="#404040" data-color="1"></path>
        <path d="M18.93 314.09h-3.35v-9.19c-.16-.05-.32-.1-.49-.15-1.26 2.1-2.48 4.21-3.77 6.29-1.22 1.97-2.21 1.98-3.46 0-1.28-2-2.49-4.05-4.14-6.74v9.74H.25v-16.6c2.12-.72 3.37 0 4.37 1.93 1.42 2.71 3.13 5.27 5.01 8.38 1.75-2.93 3.35-5.56 4.92-8.21 1.43-2.41 1.42-2.41 4.37-2.2v16.76Z" fill="#404040" data-color="1"></path>
        <path d="M69.75 314.21v-17.16c3.53.19 7.11.03 10.54.67 4.52.84 6.7 4.15 6.43 8.67-.25 4.11-3.19 7.3-7.44 7.73-2.39.25-4.82.07-7.24.08h-2.3Zm3.94-3.14c3.33 0 6.6.61 8.45-2.74 1.07-1.93 1.02-4.09-.41-5.87-2.17-2.7-5.16-1.9-8.04-1.92v10.53Z" fill="#404040" data-color="1"></path>
        <path d="M253.84 297.4c2.16-.6 3.55.02 4.81 1.77 1.96 2.72 4.23 5.21 6.89 7.59v-9.42h3.57V314c-1.92.62-3.28.1-4.5-1.51-2.08-2.74-4.35-5.34-6.96-8.5v10.1h-3.81v-16.68Z" fill="#404040" data-color="1"></path>
        <path d="M42.26 300.22v3.89h7.71v3.02h-7.69v3.95h9.09v2.98H38.42v-16.67h12.55v2.83h-8.69Z" fill="#404040" data-color="1"></path>
        <path d="M158.34 313.87c2.36-5.29 4.66-10.6 7.1-15.85.67-1.45 3.99-1.14 4.69.39 2.34 5.12 4.61 10.27 7.02 15.65-2.34.27-4.4.74-5.12-2.27-.11-.47-1.04-.97-1.64-1.05-1.22-.16-2.5.07-3.73-.08-2.05-.24-3.29.3-4.16 2.42-.35.86-2.35 1.05-3.6 1.54-.18-.25-.37-.5-.55-.76Zm12.01-6.32c-.91-2.11-1.71-3.97-2.73-6.35-1.02 2.5-1.79 4.37-2.59 6.35h5.32Z" fill="#404040" data-color="1"></path>
        <path d="M140.71 309.39c.7.64 1.43 1.3 2.13 1.95-2.14 3.79-9.32 4.32-13.11 1-3.68-3.24-3.96-9.21-.5-12.71 3.63-3.68 10.14-3.56 13.68.41-.77.7-1.54 1.4-2.28 2.08-3.59-2.44-6.51-2.41-8.57 0-1.66 1.93-1.7 5.16-.09 7.16 2.01 2.49 4.88 2.56 8.74.13Z" fill="#404040" data-color="1"></path>
        <path d="M301.24 309.31c.84.75 1.57 1.42 2.31 2.08-3.66 4.04-9.78 4.27-13.59.6-3.33-3.22-3.39-9.02-.12-12.33 3.68-3.73 9.94-3.64 13.72.35-.72.74-1.44 1.49-2.11 2.19-4.08-2.49-6.88-2.45-8.89-.02-1.58 1.91-1.48 5.54.21 7.37 2.05 2.23 4.92 2.19 8.47-.23Z" fill="#404040" data-color="1"></path>
        <path d="M194.3 297.33h3.75v13.77h8.43v2.99H194.3v-16.76Z" fill="#404040" data-color="1"></path>
        <path d="M108.5 314.09h-3.54v-16.78h3.54v16.78Z" fill="#404040" data-color="1"></path>
        <path d="M230.77 314.07v-16.68h3.73v16.68h-3.73Z" fill="#404040" data-color="1"></path>
    </g>
</svg>
